<?xml version="1.0" encoding="utf-8"?>
<!-- Generator: Adobe Illustrator 26.4.1, SVG Export Plug-In . SVG Version: 6.00 Build 0)  -->
<svg version="1.1" id="alise-1_xA0_Image_00000017478632189454479230000002313160447608920742_"
	 xmlns="http://www.w3.org/2000/svg" xmlns:xlink="http://www.w3.org/1999/xlink" x="0px" y="0px" viewBox="0 0 1600 2028"
	 style="enable-background:new 0 0 1600 2028;" xml:space="preserve">
<path d="M1469.28,1548.07c-0.7-9.28-1.45-18.65-3.41-27.71c-7.44-34.27-19.35-67.15-32.81-99.43
	c-15.44-37.02-32.22-73.48-47.3-110.64c-15.15-37.32-28.88-75.21-43.37-112.8c-1.19-3.07-0.12-4.66,1.63-7
	c8.84-11.85,17.91-23.58,25.84-36.03c6.48-10.17,4.63-15.77-4.77-23.7c-7-5.91-14.06-11.8-20.54-18.26
	c-7.18-7.15-14.22-14.44-21.22-21.76c-4.64-4.86-10.21-8.06-13.24-14.15c-2.85-5.74-3.12-12.48-7.24-17.65
	c-1.61-2.02-3.72-3.6-5.42-5.54c-5.43-6.21-6-15.12-7.35-23.27c-3.19-19.36-11.85-35.32-21.11-52.19
	c-10.03-18.28-18.41-37.47-24.98-57.26c-3.03-9.13-5.7-18.43-10.12-26.98c-6.01-11.62-16.53-27.99-28.91-33.44
	c-10.59-4.66-20.92-1.64-30.65,3.16c-2.94,1.45-4.65,1.76-6.82-0.75c-2.39-2.77-4.74-5.77-7.69-7.83c-4.3-3-8.88-6.8-13.76-7.56
	c-19.49-3.04-35.22,13.01-33.05,32.78c0.14,1.28,0.02,2.6,0.02,3.9l-1.39,0.34c-0.95-1.27-2.08-2.44-2.83-3.83
	c-17.48-32.56-35.08-65.06-52.3-97.76c-8.91-16.92-16.91-34.33-25.85-51.24c-2.39-4.52-3.12-8.24-1.58-13.09
	c1.95-6.15,3.37-12.54,4.37-18.92c3.04-19.34,3.25-38.77,1.03-58.23c-0.36-3.17-0.05-6.42-0.05-9.63
	c19.43,37.12,30.77,75.45,18.62,117.8c1.54-0.94,2.23-2.46,3.16-3.81c0.57-0.83,1.14-1.67,1.6-2.57
	c6.1-11.86,9.56-24.49,10.76-37.72c1.34-14.72,0.02-29.29-3.23-43.66c-4.16-18.37-8.23-32.84-16.47-52.39
	c-0.5-1.18-4.98-11.86-7.61-17.79c1.41,0.61,2.64,1.05,3.67,1.75c17.6,12.08,36.82,21.35,58.32,24.66
	c35.5,5.46,43.15-16.73,42.38-23.43c-0.89-7.64-10.26-17.89-17.7-19.6c1.52,2.49,3.9,4.96,4.64,7.85
	c3.72,14.61-10.16,31.42-26.5,27.16c-24.44-6.36-45.74-18.02-63.89-35.47c-1.01-0.97-1.66-2.85-1.62-4.29
	c0.24-8.28,1.29-16.57,0.96-24.82c-0.27-6.72,1.51-12.3,4.94-17.87c4.89-7.93,9.72-15.95,13.8-24.3
	c3.82-7.82,15.74-14.84,24.46-13.28c17.17,3.07,33.68,8.36,48.91,16.75c6.08,3.35,11.74,8.37,16.03,13.85
	c7.46,9.55,13.75,20.03,20.46,30.16c19.32,29.19,37.83,58.83,51.13,91.39c-1.78,11.31-37.91,14.07-42.32,58.91
	c-2.98,30.28,19.47,59.88,57.85,62.22c62.17,3.8,79.5-56.36,50.16-90.65c-10.16-11.87-31.39-26.43-34.97-31.16
	c-19.75-26.11,6.94-64.84,9.45-97.34c1.4-18.09,1.48-36.28,2.53-54.4c1.37-23.72-1.63-46.82-8.71-69.45
	c-6.78-21.7-16.45-42.14-26.71-62.36c-14.91-29.4-29.02-59.21-44.39-88.36c-15.83-30.02-36.08-57.14-57.64-83.29
	c-19.96-24.2-40.01-48.29-65.4-67.16c-14.5-10.78-30.23-18.36-48.6-20.49c-18.43-2.14-36.22,0.71-53.91,4.87
	c-29.42,6.91-57.53,17.85-85.31,29.47c-28.56,11.95-56.64,25.03-85.01,37.43c-17.03,7.44-33.27,16.91-51.8,20.62
	c-11.63,2.33-23.32,4.93-35.11,1.89c-33.33-8.6-66.51-17.81-99.88-26.24c-50.49-12.75-101.1-25.23-152.82-31.81
	c-16.86-2.14-34.64-2.96-51.24-0.04c-33.76,5.93-62.05,23.52-85.16,48.85c-10.65,11.68-20.43,24.16-30.51,36.35
	c-38.05,46.05-71.01,95.53-96.47,149.54c-25.69,54.49-50.13,109.59-74.05,164.89c-13.29,30.73-20.6,63.11-21.01,96.96
	c-0.45,37.36,3.45,74.12,12.34,110.36c-2.71,9.55-17.82,7.55-33.61,24.3c-35.96,38.14,2.89,114.34,58.53,107.44
	c52.57-6.52,86.39-68.68,48.14-109.46c-13.71-14.61-47.45-22.78-39.5-33.65c5.7-14.04,11.19-28.16,17.34-42
	c9.29-20.93,22.46-39.06,41.74-51.86c10.66-7.08,21.82-13.56,33.32-19.17c33.96-16.57,68.49-31.97,102.17-49.07
	c13.39-6.8,23.89-3.95,34.45,4.02c2.6,1.96,5.18,5.24,5.79,8.3c2.96,15.02,9.83,27.78,20.17,38.95c1.76,1.9,2.9,4.89,3.25,7.52
	c1.57,11.87,2.75,23.79,4.06,35.7c0.76,6.9,2.45,13.35,7.51,18.61c0.85,0.88,0.85,3.82,0.04,4.85
	c-14.76,18.75-60.39,47.88-91.98,34.75c-15.02-6.24-27.66-14.71-29.86-33.54c-4.89,15.28,0.05,27.83,10.85,36.24
	c46.14,35.96,101.52-0.88,113.43-18.19c0.47-0.68,1.45-0.99,2.14-1.44c0,8.05-0.27,15.8,0.06,23.52
	c0.61,14.13-1.75,27.88-5.18,41.44c-7.99,31.57-21.28,61.25-32.98,91.5c-2.27,5.86-3.96,11.94-6.14,17.84
	c-0.04-0.02-0.08-0.03-0.11-0.05c-1.5,2.29-3.51,4.4-4.4,6.91c-4.33,12.21-8.55,24.47-12.46,36.83
	c-9.05,28.62-13.89,57.92-13.2,87.99c0.65,28.55,8.12,54.84,26.18,77.58c1.04,1.3,1.22,3.95,0.73,5.67
	c-1.29,4.46-3.46,8.67-4.76,13.13c-1.87,6.45-5.01,10.71-12.57,9.76c-1.39-0.17-2.92,0.54-4.35,0.97
	c-13.06,4.02-21.97,13.64-30.55,23.37c-17.31,19.62-29.79,42.34-40.88,65.82c-22.98,48.65-49.55,95.51-78.49,140.87
	c-13.65,21.39-26.41,43.3-36.95,66.46c-5.35,11.76-9.09,23.88-10.15,36.84c-1.71,20.88,4.3,40,13.93,57.97
	c14.43,26.93,35.42,48.7,57.55,69.29c4.82,4.48,6.12,8.76,5.35,14.87c-1.86,14.68-2.36,29.58-5.09,44.08
	c-2.31,12.25,3.47,18.03,13.15,22.35c0.61,0.27,1.19,0.6,1.81,0.84c2.51,0.97,3.22,2.3,2.77,5.33c-3.38,22.7-6.45,45.46-9.56,68.2
	c-2.07,15.17-3.64,30.42-6.16,45.51c-4.87,29.15-7.73,58.55-7.05,88c0.58,25.39,3.76,50.74,6.18,76.07
	c1.6,16.75,10.86,28.32,25.41,36.52c6.79,3.83,13.43,5.07,20.95,4.41c19.41-1.7,38.84-3.08,58.26-4.69
	c23.98-1.99,47.52-6.6,70.32-14.16c33.12-10.99,63.04-28.43,91.9-47.77c2.87-1.93,5.81-3.75,9.66-6.23
	c-5.06,11.16-3.13,21.38-2.1,31.63c0.42,4.21,0.61,8.81-0.63,12.74c-4.12,12.99-9.07,25.71-13.47,38.62
	c-3.85,11.31-7.39,22.73-11.07,34.11h675.07c-2.08-14.15-3.56-28.43-6.38-42.43c-4.28-21.18-9.35-42.2-14.34-63.24
	c-9.5-40.13-19.52-80.15-28.57-120.38c-2.68-11.92-4.14-24.43-3.89-36.63c0.62-29.46,2.4-58.9,4.04-88.33
	c1.48-26.43,3.36-52.84,5.18-79.25c0.29-4.18,1.17-8.32,1.89-13.21c2.06,1.36,3.25,2.2,4.5,2.96c6.21,3.75,12.7,5.85,19.95,3.25
	c9.7-3.48,19.49-6.74,29.05-10.57c3.22-1.29,4.83-0.85,7.23,1.52c11.36,11.24,22.75,22.48,34.63,33.17
	c9.03,8.12,15.43,8.28,25.64,1.62c3.2-2.09,5.37-1.7,7.9,0.66c7.44,6.92,14.75,14,22.47,20.6c15.56,13.29,30.68,27.23,47.22,39.18
	c20.38,14.72,42.63,26.54,65.78,36.58c13.57,5.89,26.66,11.91,42.01,13.23c23.24,1.99,45.55-12.62,49.65-35.45
	c1.73-9.65,1.68-19.65,3.77-29.2C1467.38,1624.47,1472.18,1586.61,1469.28,1548.07z"/>
</svg>
